<?xml version="1.0" encoding="UTF-8"?>
<svg id="Ebene_1" data-name="Ebene 1" xmlns="http://www.w3.org/2000/svg" viewBox="0 0 550 550">
  <defs>
    <style>
      .cls-1 {
        fill: #79c3a7;
      }

      .cls-2 {
        fill: #ad3612;
        stroke: #fff;
        stroke-miterlimit: 10;
        stroke-width: 6px;
      }
    </style>
  </defs>
  <g>
    <path class="cls-1" d="M383.4,328.2c-8.46,0-15.31,6.86-15.31,15.32s6.86,15.32,15.31,15.32,15.32-6.86,15.32-15.32-6.86-15.32-15.32-15.32Z"/>
    <polygon class="cls-1" points="448.86 265.97 434.02 280.82 463.03 309.82 434.02 338.83 448.86 353.68 492.72 309.82 448.86 265.97"/>
    <polygon class="cls-1" points="259.28 265.97 215.43 309.82 259.28 353.68 274.13 338.83 245.13 309.82 274.13 280.82 259.28 265.97"/>
    <path class="cls-1" d="M426.43,167.32c-26.61-49.93-77.68-80.72-134.56-80.72-43.28,0-84.17,18.23-113.09,50.23-4.97-.62-9.93-.94-14.82-.94-65.97,0-119.63,53.67-119.63,119.64,0,6.87,.6,13.76,1.8,20.58-16.88,15.13-26.44,36.36-26.44,59.21,0,43.97,35.77,79.74,79.74,79.74h165.38c.52,1,1.08,1.98,1.66,2.94,.18,.3,.31,.61,.49,.91,.29,.46,.64,.87,.95,1.32,.62,.93,1.28,1.84,1.95,2.72,.86,1.13,1.76,2.21,2.69,3.25,.46,.51,.92,1.01,1.4,1.5,1.32,1.37,2.7,2.65,4.14,3.86,.26,.22,.51,.44,.78,.65,1.68,1.35,3.43,2.59,5.25,3.73,.17,.11,.34,.22,.51,.32,1.58,.96,3.21,1.82,4.89,2.62,.53,.25,1.05,.52,1.58,.75,.92,.4,1.85,.77,2.79,1.12,1.37,.51,2.75,.97,4.17,1.36,.66,.18,1.33,.34,1.99,.5,1.71,.41,3.44,.76,5.2,1,.33,.04,.67,.07,1,.11,2.05,.24,4.13,.39,6.23,.39h85.3c77.13,0,139.88-62.75,139.88-139.88,0-66.74-46.46-123.48-111.23-136.91Zm-28.65,255.79h-85.3c-1.6,0-3.16-.14-4.7-.36-.58-.08-1.15-.22-1.73-.33-.92-.18-1.84-.39-2.73-.64-.69-.2-1.36-.42-2.03-.66-.74-.27-1.46-.57-2.17-.88-.7-.31-1.4-.62-2.07-.98-.66-.35-1.28-.76-1.92-1.15-.65-.4-1.31-.78-1.93-1.23-1.14-.83-2.22-1.74-3.25-2.71-.41-.39-.78-.84-1.17-1.26-.19-.2-.36-.41-.54-.62h34.66c4.25,0,7.7-3.45,7.7-7.7s-3.45-7.7-7.7-7.7h-36.83v-7.52c0-4.96,4.03-8.99,8.99-8.99h15.27c4.25,0,7.7-3.45,7.7-7.7s-3.45-7.7-7.7-7.7h-15.27c-2.54,0-4.93,.5-7.23,1.22l48.65-100.44h-23.34l-49.02,101.22c-4.17,8.62-5.88,17.94-5.24,27.11H99.42c-32.39,0-58.73-26.35-58.73-58.74,0-18.48,8.5-35.52,23.32-46.77l5.42-4.11-1.53-6.63c-1.7-7.34-2.57-14.85-2.57-22.3,0-54.39,44.25-98.64,98.63-98.64,5.63,0,11.4,.51,17.15,1.52l5.98,1.05,3.89-4.65c25.09-30,61.87-47.2,100.9-47.2,50.58,0,95.84,28.24,118.13,73.7l2.37,4.84,5.31,.9c57.35,9.66,98.97,58.95,98.97,117.19,0,65.55-53.33,118.88-118.88,118.88Z"/>
  </g>
  <g>
    <path class="cls-2" d="M114.32,192.16c0-17.93-12.22-30.24-32.97-30.24-18.65,0-32.03,7.83-41.25,22.12l-16.81-14.56c12.67-19.89,32.71-31.37,59.68-31.37,33.2,0,54.63,18.76,54.63,49.85,0,46.78-40.8,49.85-40.8,86.55h-23.04c0-43.98,40.57-50.14,40.57-82.35Zm-43.8,128c0-10.08,6.23-17.93,14.98-17.93s14.75,7.85,14.75,17.93-6.21,17.93-14.75,17.93-14.98-8.12-14.98-17.93Z"/>
    <path class="cls-2" d="M158.16,320.16c0-10.08,7.85-17.93,18.5-17.93s17.93,7.85,17.93,17.93-7.57,17.93-17.93,17.93-18.5-8.12-18.5-17.93Zm2.53-179.82h31.66l-5.34,134.17h-21.28l-5.04-134.17Z"/>
  </g>
</svg>