<?xml version="1.0" encoding="UTF-8"?>
<svg id="Ebene_1" data-name="Ebene 1" xmlns="http://www.w3.org/2000/svg" viewBox="0 0 550 550">
  <defs>
    <style>
      .cls-1 {
        fill: #79c3a7;
      }

      .cls-2 {
        fill: #ad3612;
      }
    </style>
  </defs>
  <g>
    <path class="cls-1" d="M375.68,345.15c-8.13,0-14.71,6.59-14.71,14.71s6.59,14.71,14.71,14.71,14.71-6.59,14.71-14.71-6.59-14.71-14.71-14.71Z"/>
    <polygon class="cls-1" points="438.57 285.36 424.31 299.62 452.17 327.49 424.31 355.36 438.57 369.62 480.7 327.49 438.57 285.36"/>
    <polygon class="cls-1" points="256.45 285.36 214.32 327.49 256.45 369.62 270.72 355.36 242.85 327.49 270.72 299.62 256.45 285.36"/>
    <path class="cls-1" d="M417.02,190.59c-25.56-47.96-74.62-77.54-129.26-77.54-17.18,0-33.97,3-49.72,8.68,1.51,4.51,2.78,9.08,3.77,13.71,1.98,.95,3.75,2.52,5.34,4.5,12.92-4.39,26.62-6.71,40.62-6.71,48.59,0,92.07,27.13,113.48,70.8l2.28,4.65,5.1,.86c55.09,9.28,95.08,56.63,95.08,112.57,0,62.97-51.23,114.2-114.2,114.2h-81.94c-1.54,0-3.04-.14-4.52-.35-.56-.08-1.11-.21-1.66-.32-.89-.17-1.76-.37-2.62-.62-.66-.19-1.31-.41-1.95-.64-.71-.26-1.4-.54-2.09-.85-.67-.3-1.34-.6-1.99-.94-.63-.34-1.23-.73-1.84-1.11-.62-.39-1.26-.75-1.85-1.18-1.09-.8-2.14-1.67-3.12-2.61-.4-.38-.75-.81-1.13-1.21-.18-.19-.34-.4-.52-.59h33.3c4.08,0,7.4-3.31,7.4-7.4s-3.31-7.4-7.4-7.4h-35.38v-7.23c0-4.76,3.87-8.63,8.63-8.63h14.67c4.08,0,7.4-3.31,7.4-7.4s-3.31-7.4-7.4-7.4h-14.67c-2.44,0-4.74,.48-6.95,1.17l46.73-96.48h-22.42l-47.09,97.23c-4.01,8.28-5.65,17.24-5.04,26.05H102.88c-31.11,0-56.42-25.31-56.42-56.43,0-17.75,8.17-34.12,22.4-44.93l5.21-3.95-1.47-6.37c-.37-1.61-.7-3.23-.98-4.86-6.7-4.51-12.16-10.85-14.71-18.19-2.3,.9-4.61,1.78-6.92,2.64,.06,6.26,.61,12.55,1.7,18.77-16.22,14.53-25.4,34.93-25.4,56.88,0,42.24,34.36,76.6,76.6,76.6h158.88c.5,.96,1.04,1.9,1.59,2.82,.17,.29,.29,.59,.47,.87,.28,.44,.62,.83,.91,1.27,.6,.89,1.23,1.76,1.88,2.61,.83,1.08,1.69,2.12,2.59,3.13,.44,.49,.89,.97,1.34,1.44,1.27,1.31,2.59,2.54,3.98,3.71,.25,.21,.49,.42,.75,.62,1.61,1.3,3.29,2.49,5.04,3.58,.16,.1,.32,.21,.49,.31,1.52,.92,3.09,1.75,4.7,2.51,.51,.24,1.01,.5,1.52,.72,.88,.38,1.78,.74,2.68,1.08,1.31,.49,2.65,.93,4,1.31,.63,.18,1.27,.33,1.92,.48,1.64,.39,3.31,.73,5,.96,.32,.04,.64,.07,.96,.1,1.97,.23,3.96,.38,5.98,.38h81.94c74.09,0,134.37-60.28,134.37-134.37,0-64.11-44.63-118.62-106.85-131.52Z"/>
  </g>
  <path class="cls-2" d="M87.83,139.91c0-10.4-.11-21.03,.02-31.65,.35-28.93,17.38-53.89,43.59-64.05,45.45-17.62,93.52,14.85,94.28,63.74,.16,10.65,.02,21.31,.02,32.28,2.58,.45,4.7,.7,6.76,1.2,12.18,2.91,20.82,14.02,20.88,27.51,.14,30.09,.18,60.18,0,90.27-.1,16.96-11.97,28.62-29.06,28.67-45.14,.11-90.27,.13-135.41,0-16.67-.05-28.58-11.77-28.7-28.36-.22-30.31-.2-60.62,0-90.93,.1-15.36,8.41-23.87,27.63-28.68Zm68.64,135.13c20.97,0,41.94,.03,62.91-.01,12.91-.03,19.95-6.94,19.98-19.69,.05-27.34,.05-54.69,0-82.03-.02-12.85-6.94-20.07-19.69-20.1-41.94-.1-83.88-.11-125.83,0-12.72,.03-19.67,7.31-19.69,20.12-.04,27.14-.04,54.28,0,81.42,.02,13.56,6.88,20.27,20.63,20.29,20.56,.03,41.12,0,61.68,0Zm-42.15-134.64h83.35c0-13.2,1.17-26.11-.27-38.72-2.23-19.41-19.02-33.79-38.35-34.9-19.16-1.1-38.23,11.54-41.95,30.44-2.73,13.88-1.97,28.45-2.79,43.19Zm102.46,.09c0-12.07,.44-23.41-.09-34.71-1.39-29.71-23.53-53.21-53.3-57.12-27.7-3.64-56.61,14.33-63.52,42.27-3.89,15.73-3.07,32.62-4.41,49.47h10.85c0-2.95-.03-5.52,0-8.09,.15-10.25-.35-20.56,.62-30.72,2.32-24.34,24.1-43.49,49.06-43.9,25.07-.41,47.78,18.55,50.47,43.06,1.18,10.79,.57,21.78,.8,32.67,.05,2.31,.24,4.61,.38,7.06h9.12Z"/>
  <g>
    <path class="cls-2" d="M99.15,215.08l-10.3-1.86c1.16-4.15,3.15-7.22,5.98-9.21,2.83-1.99,7.03-2.99,12.6-2.99,5.06,0,8.83,.6,11.31,1.8,2.48,1.2,4.22,2.72,5.23,4.56,1.01,1.84,1.51,5.23,1.51,10.16l-.12,13.25c0,3.77,.18,6.55,.55,8.34s1.04,3.71,2.04,5.75h-11.23c-.3-.75-.66-1.87-1.09-3.35-.19-.67-.32-1.12-.4-1.33-1.94,1.88-4.01,3.3-6.22,4.24s-4.56,1.41-7.07,1.41c-4.42,0-7.9-1.2-10.44-3.59-2.54-2.4-3.82-5.42-3.82-9.09,0-2.42,.58-4.58,1.74-6.48,1.16-1.9,2.78-3.35,4.87-4.36s5.1-1.89,9.03-2.65c5.3-1,8.98-1.92,11.02-2.79v-1.13c0-2.18-.54-3.74-1.62-4.66s-3.11-1.39-6.1-1.39c-2.02,0-3.59,.4-4.72,1.19s-2.05,2.19-2.75,4.18Zm15.18,9.21c-1.45,.48-3.76,1.06-6.91,1.74s-5.21,1.33-6.18,1.98c-1.48,1.05-2.22,2.38-2.22,4s.59,2.96,1.78,4.12,2.69,1.74,4.52,1.74c2.05,0,4-.67,5.86-2.02,1.37-1.02,2.27-2.27,2.71-3.76,.3-.97,.44-2.81,.44-5.53v-2.26Z"/>
    <path class="cls-2" d="M136.19,244.89v-59.2h11.35v21.32c3.5-3.98,7.65-5.98,12.44-5.98,5.22,0,9.54,1.89,12.96,5.67,3.42,3.78,5.13,9.21,5.13,16.3s-1.74,12.96-5.23,16.92-7.72,5.94-12.7,5.94c-2.45,0-4.87-.61-7.25-1.84s-4.44-3.04-6.16-5.43v6.3h-10.54Zm11.27-22.37c0,4.44,.7,7.73,2.1,9.85,1.97,3.02,4.58,4.52,7.83,4.52,2.5,0,4.64-1.07,6.4-3.21,1.76-2.14,2.65-5.51,2.65-10.12,0-4.9-.89-8.43-2.67-10.6-1.78-2.17-4.05-3.25-6.82-3.25s-4.98,1.06-6.78,3.17c-1.8,2.11-2.71,5.32-2.71,9.63Z"/>
    <path class="cls-2" d="M224.59,214.68l-11.19,2.02c-.38-2.23-1.23-3.92-2.56-5.05s-3.06-1.7-5.19-1.7c-2.83,0-5.08,.98-6.76,2.93-1.68,1.95-2.52,5.22-2.52,9.79,0,5.09,.85,8.68,2.56,10.78,1.71,2.1,4,3.15,6.89,3.15,2.15,0,3.92-.61,5.29-1.84s2.34-3.33,2.91-6.32l11.15,1.9c-1.16,5.12-3.38,8.98-6.66,11.59s-7.69,3.92-13.21,3.92c-6.27,0-11.27-1.98-15-5.94-3.73-3.96-5.59-9.44-5.59-16.44s1.87-12.59,5.61-16.54c3.74-3.94,8.8-5.92,15.18-5.92,5.22,0,9.38,1.12,12.46,3.37s5.3,5.67,6.64,10.28Z"/>
  </g>
</svg>