<?xml version="1.0" encoding="UTF-8"?>
<svg id="Ebene_1" data-name="Ebene 1" xmlns="http://www.w3.org/2000/svg" viewBox="0 0 550 550">
  <defs>
    <style>
      .cls-1 {
        fill: #79c3a7;
        stroke: #fff;
        stroke-miterlimit: 10;
      }

      .cls-2 {
        fill: #ad3612;
      }
    </style>
  </defs>
  <g>
    <path class="cls-1" d="M379.54,337.73c-8.44,0-15.29,6.84-15.29,15.29s6.84,15.29,15.29,15.29,15.29-6.84,15.29-15.29-6.84-15.29-15.29-15.29Z"/>
    <polygon class="cls-1" points="444.88 275.61 430.06 290.43 459.01 319.39 430.06 348.35 444.88 363.17 488.66 319.39 444.88 275.61"/>
    <polygon class="cls-1" points="255.65 275.61 211.87 319.39 255.65 363.17 270.47 348.35 241.52 319.39 270.47 290.43 255.65 275.61"/>
    <path class="cls-1" d="M422.49,177.14c-26.56-49.84-77.54-80.57-134.31-80.57-40.8,0-79.46,16.25-107.95,44.96,.04,.03,.08,.06,.12,.09,5.6,4.72,9.33,10.58,12.79,16.7,24.75-26.01,58.92-40.78,95.04-40.78,50.48,0,95.66,28.19,117.91,73.57l2.37,4.83,5.3,.89c57.24,9.65,98.79,58.84,98.79,116.97,0,65.43-53.23,118.66-118.66,118.66h-85.14c-1.6,0-3.16-.14-4.69-.36-.58-.08-1.15-.22-1.72-.33-.92-.18-1.83-.39-2.72-.64-.69-.2-1.36-.42-2.03-.66-.74-.27-1.46-.57-2.17-.88-.7-.31-1.4-.62-2.07-.98-.66-.35-1.28-.76-1.91-1.15-.64-.4-1.31-.78-1.92-1.23-1.14-.83-2.22-1.73-3.24-2.71-.41-.39-.78-.84-1.17-1.26-.19-.2-.36-.41-.54-.62h34.6c4.24,0,7.69-3.44,7.69-7.69s-3.44-7.69-7.69-7.69h-36.76v-7.51c0-4.95,4.02-8.97,8.97-8.97h15.24c4.24,0,7.69-3.44,7.69-7.69s-3.44-7.69-7.69-7.69h-15.24c-2.53,0-4.92,.5-7.22,1.22l48.56-100.25h-23.3l-48.93,101.03c-4.17,8.6-5.87,17.91-5.23,27.06H96.08c-32.33,0-58.63-26.3-58.63-58.63,0-18.44,8.48-35.46,23.28-46.68l5.41-4.1-.02-.09c-5.21-4.94-9.61-10.65-14.08-16.36-4.64-5.94-8.18-13.08-10.68-20.25-.17,2.59-.28,5.2-.28,7.83,0,6.85,.6,13.74,1.79,20.55-16.85,15.1-26.39,36.29-26.39,59.1,0,43.89,35.7,79.59,79.59,79.59h165.08c.52,1,1.08,1.97,1.66,2.93,.18,.3,.31,.61,.49,.91,.29,.46,.64,.86,.95,1.32,.62,.93,1.27,1.83,1.95,2.72,.86,1.13,1.76,2.2,2.69,3.25,.46,.51,.92,1.01,1.39,1.5,1.32,1.36,2.7,2.64,4.14,3.85,.26,.22,.51,.44,.78,.65,1.68,1.35,3.42,2.59,5.24,3.72,.17,.11,.34,.22,.51,.32,1.58,.96,3.21,1.82,4.88,2.61,.53,.25,1.04,.51,1.58,.75,.92,.4,1.85,.77,2.79,1.12,1.37,.51,2.75,.96,4.16,1.36,.66,.18,1.32,.34,1.99,.5,1.71,.41,3.44,.76,5.19,1,.33,.04,.67,.07,1,.11,2.05,.24,4.12,.39,6.21,.39h85.14c76.99,0,139.62-62.63,139.62-139.62,0-66.61-46.37-123.26-111.03-136.66Z"/>
  </g>
  <path class="cls-2" d="M226.5,370.57l-55.34-95.85c16.55-14.54,27.01-35.86,27.01-59.63,0-43.82-35.52-79.33-79.33-79.33s-79.33,35.52-79.33,79.33,35.52,79.33,79.33,79.33c12.61,0,24.54-2.95,35.12-8.19l54.65,94.66,17.89-10.33ZM54.89,215.09c0-35.32,28.63-63.94,63.94-63.94s63.94,28.63,63.94,63.94-28.63,63.94-63.94,63.94-63.94-28.63-63.94-63.94Z"/>
</svg>