<?xml version="1.0" encoding="utf-8"?>
<!-- Generator: Adobe Illustrator 23.1.1, SVG Export Plug-In . SVG Version: 6.00 Build 0)  -->
<svg version="1.1" id="Ebene_1" xmlns="http://www.w3.org/2000/svg" xmlns:xlink="http://www.w3.org/1999/xlink" x="0px" y="0px"
	 viewBox="0 0 355.2 86.6" style="enable-background:new 0 0 355.2 86.6;" xml:space="preserve">
<style type="text/css">
	.st0{fill:#79C3A7;}
	.st1{fill:#042F66;}
	.st2{fill:#7BC5B3;}
</style>
<path class="st0" d="M97.2,27.3C91.5,16.6,80.5,10,68.3,10c-9.3,0-18,3.9-24.2,10.8c-1.1-0.1-2.1-0.2-3.2-0.2
	c-14.1,0-25.6,11.5-25.6,25.6c0,1.5,0.1,2.9,0.4,4.4C12,53.8,10,58.4,10,63.3c0,9.4,7.7,17.1,17.1,17.1h35.4c2,3.8,5.9,6.2,10.2,6.2
	H91c16.5,0,30-13.4,30-30C121,42.3,111,30.2,97.2,27.3z"/>
<g>
	<path class="st1" d="M77.9,51.8c-1.8,0-3.3,1.5-3.3,3.3c0,1.8,1.5,3.3,3.3,3.3c1.8,0,3.3-1.5,3.3-3.3
		C81.2,53.2,79.7,51.8,77.9,51.8z"/>
	<polygon class="st1" points="92,38.4 88.8,41.6 95,47.8 88.8,54 92,57.2 101.4,47.8 	"/>
	<polygon class="st1" points="51.3,38.4 41.9,47.8 51.3,57.2 54.5,54 48.3,47.8 54.5,41.6 	"/>
	<path class="st1" d="M87.2,17.3C81.5,6.6,70.5,0,58.3,0c-9.3,0-18,3.9-24.2,10.8c-1.1-0.1-2.1-0.2-3.2-0.2
		c-14.1,0-25.6,11.5-25.6,25.6c0,1.5,0.1,2.9,0.4,4.4C2,43.8,0,48.4,0,53.3c0,9.4,7.7,17.1,17.1,17.1h35.4c0.1,0.2,0.2,0.4,0.4,0.6
		c0,0.1,0.1,0.1,0.1,0.2c0.1,0.1,0.1,0.2,0.2,0.3c0.1,0.2,0.3,0.4,0.4,0.6c0.2,0.2,0.4,0.5,0.6,0.7c0.1,0.1,0.2,0.2,0.3,0.3
		c0.3,0.3,0.6,0.6,0.9,0.8c0.1,0,0.1,0.1,0.2,0.1c0.4,0.3,0.7,0.6,1.1,0.8c0,0,0.1,0,0.1,0.1c0.3,0.2,0.7,0.4,1,0.6
		c0.1,0.1,0.2,0.1,0.3,0.2c0.2,0.1,0.4,0.2,0.6,0.2c0.3,0.1,0.6,0.2,0.9,0.3c0.1,0,0.3,0.1,0.4,0.1c0.4,0.1,0.7,0.2,1.1,0.2
		c0.1,0,0.1,0,0.2,0c0.4,0.1,0.9,0.1,1.3,0.1H81c16.5,0,30-13.4,30-30C111,32.3,101,20.2,87.2,17.3z M81,72.1H62.7
		c-0.3,0-0.7,0-1-0.1c-0.1,0-0.2,0-0.4-0.1c-0.2,0-0.4-0.1-0.6-0.1c-0.1,0-0.3-0.1-0.4-0.1c-0.2-0.1-0.3-0.1-0.5-0.2
		c-0.1-0.1-0.3-0.1-0.4-0.2c-0.1-0.1-0.3-0.2-0.4-0.2c-0.1-0.1-0.3-0.2-0.4-0.3c-0.2-0.2-0.5-0.4-0.7-0.6c-0.1-0.1-0.2-0.2-0.3-0.3
		c0,0-0.1-0.1-0.1-0.1H65c0.9,0,1.7-0.7,1.7-1.6s-0.7-1.6-1.7-1.6h-7.9v-1.6c0-1.1,0.9-1.9,1.9-1.9h3.3c0.9,0,1.7-0.7,1.7-1.6
		s-0.7-1.6-1.7-1.6H59c-0.5,0-1.1,0.1-1.6,0.3l10.4-21.5h-5L52.4,60.1c-0.9,1.8-1.3,3.8-1.1,5.8H17.1c-6.9,0-12.6-5.6-12.6-12.6
		c0-4,1.8-7.6,5-10l1.2-0.9L10.3,41c-0.4-1.6-0.5-3.2-0.5-4.8c0-11.7,9.5-21.1,21.1-21.1c1.2,0,2.4,0.1,3.7,0.3l1.3,0.2l0.8-1
		C42.1,8.2,50,4.5,58.3,4.5c10.8,0,20.5,6.1,25.3,15.8l0.5,1l1.1,0.2c12.3,2.1,21.2,12.6,21.2,25.1C106.5,60.7,95.1,72.1,81,72.1z"
		/>
</g>
<g>
	<path class="st2" d="M175.8,38.3v32h-7.1v-4.1c-1.2,1.5-2.8,2.7-4.6,3.4c-1.8,0.8-3.8,1.1-6,1.1c-3.1,0-5.9-0.7-8.4-2
		s-4.4-3.3-5.8-5.8c-1.4-2.5-2.1-5.4-2.1-8.6c0-3.3,0.7-6.2,2.1-8.6c1.4-2.5,3.3-4.4,5.8-5.7s5.2-2,8.4-2c2.1,0,4,0.4,5.7,1.1
		c1.7,0.7,3.2,1.8,4.5,3.2v-3.9H175.8z M165.7,61.6c1.8-1.8,2.7-4.3,2.7-7.3s-0.9-5.4-2.7-7.3s-4.1-2.8-6.8-2.8s-5,0.9-6.8,2.8
		s-2.7,4.3-2.7,7.3s0.9,5.4,2.7,7.3s4.1,2.8,6.8,2.8S163.9,63.5,165.7,61.6z"/>
	<path class="st2" d="M191.3,68.7c-2.6-1.4-4.6-3.3-6.1-5.8c-1.5-2.5-2.2-5.3-2.2-8.5s0.7-6,2.2-8.5c1.5-2.5,3.5-4.4,6.1-5.8
		c2.6-1.4,5.5-2.1,8.8-2.1c3.3,0,6.2,0.7,8.8,2.1c2.6,1.4,4.6,3.3,6.1,5.8c1.5,2.5,2.2,5.3,2.2,8.5s-0.7,6-2.2,8.5
		c-1.5,2.5-3.5,4.4-6.1,5.8c-2.6,1.4-5.5,2.1-8.8,2.1C196.8,70.8,193.9,70.1,191.3,68.7z M206.9,61.6c1.8-1.8,2.7-4.3,2.7-7.3
		s-0.9-5.4-2.7-7.3s-4.1-2.8-6.8-2.8s-5,0.9-6.8,2.8s-2.7,4.3-2.7,7.3s0.9,5.4,2.7,7.3s4.1,2.8,6.8,2.8S205.1,63.5,206.9,61.6z"/>
	<path class="st1" d="M252.2,41.5c2.4,2.4,3.7,5.9,3.7,10.5v18.4h-7.5V53c0-2.8-0.7-4.9-2-6.3c-1.3-1.4-3.2-2.1-5.6-2.1
		c-2.8,0-4.9,0.8-6.5,2.5c-1.6,1.7-2.4,4-2.4,7.2v16.2h-7.5V25.9h7.5v16.2c1.2-1.3,2.8-2.3,4.6-3c1.8-0.7,3.8-1.1,6.1-1.1
		C246.5,38,249.8,39.2,252.2,41.5z"/>
	<path class="st1" d="M265.8,31.8c-0.9-0.9-1.4-1.9-1.4-3.2s0.5-2.3,1.4-3.2c0.9-0.9,2.1-1.3,3.4-1.3c1.4,0,2.5,0.4,3.4,1.2
		c0.9,0.8,1.4,1.9,1.4,3.1c0,1.3-0.5,2.4-1.3,3.3c-0.9,0.9-2.1,1.4-3.5,1.4C267.8,33.1,266.7,32.6,265.8,31.8z M265.4,38.3h7.5v32
		h-7.5V38.3z"/>
	<path class="st1" d="M308.9,40c2.5,1.4,4.4,3.3,5.8,5.8c1.4,2.5,2.1,5.3,2.1,8.6s-0.7,6.1-2.1,8.6c-1.4,2.5-3.3,4.4-5.8,5.8
		s-5.2,2-8.4,2c-4.3,0-7.7-1.4-10.3-4.3V82h-7.5V38.3h7.1v4.2c1.2-1.5,2.8-2.7,4.6-3.4c1.8-0.8,3.8-1.1,6-1.1
		C303.6,38,306.4,38.7,308.9,40z M306.5,61.6c1.8-1.8,2.7-4.3,2.7-7.3s-0.9-5.4-2.7-7.3c-1.8-1.8-4.1-2.8-6.8-2.8
		c-1.8,0-3.4,0.4-4.9,1.2c-1.4,0.8-2.6,2-3.4,3.5c-0.8,1.5-1.3,3.3-1.3,5.3s0.4,3.8,1.3,5.3c0.8,1.5,2,2.7,3.4,3.5
		c1.4,0.8,3.1,1.2,4.9,1.2C302.4,64.4,304.7,63.5,306.5,61.6z"/>
	<path class="st1" d="M355.2,38.3v32h-7.1v-4.1c-1.2,1.5-2.8,2.7-4.6,3.4c-1.8,0.8-3.8,1.1-6,1.1c-3.1,0-5.9-0.7-8.4-2
		s-4.4-3.3-5.8-5.8c-1.4-2.5-2.1-5.4-2.1-8.6c0-3.3,0.7-6.2,2.1-8.6c1.4-2.5,3.3-4.4,5.8-5.7s5.2-2,8.4-2c2.1,0,4,0.4,5.7,1.1
		c1.7,0.7,3.2,1.8,4.5,3.2v-3.9H355.2z M345.2,61.6c1.8-1.8,2.7-4.3,2.7-7.3s-0.9-5.4-2.7-7.3s-4.1-2.8-6.8-2.8
		c-2.8,0-5,0.9-6.8,2.8c-1.8,1.8-2.7,4.3-2.7,7.3s0.9,5.4,2.7,7.3c1.8,1.8,4,2.8,6.8,2.8C341.1,64.4,343.4,63.5,345.2,61.6z"/>
</g>
</svg>
