<?xml version="1.0" encoding="UTF-8"?>
<svg id="Ebene_1" data-name="Ebene 1" xmlns="http://www.w3.org/2000/svg" xmlns:xlink="http://www.w3.org/1999/xlink" viewBox="0 0 512 512">
  <defs>
    <style>
      .cls-1 {
        fill: #fff;
      }

      .cls-2 {
        fill: url(#Unbenannter_Verlauf_7);
      }

      .cls-3 {
        fill: #004fbc;
      }
    </style>
    <linearGradient id="Unbenannter_Verlauf_7" data-name="Unbenannter Verlauf 7" x1="14.38" y1="1913.41" x2="271.12" y2="2358.1" gradientTransform="translate(-26.28 2330.94) rotate(1.04) scale(1 -1)" gradientUnits="userSpaceOnUse">
      <stop offset=".02" stop-color="#76abd3"/>
      <stop offset="1" stop-color="#93c88e"/>
    </linearGradient>
  </defs>
  <path class="cls-2" d="m150.36,208.99c-.08,0-.16-.02-.24-.03-.97-.08-1.8-.39-2.48-.85-.2.26-.4.51-.6.77,1.11.02,2.21.06,3.32.11Z"/>
  <g>
    <path class="cls-1" d="m113,347.99s57.63-16.75,111.03-168.49c0,0-31.29,138.13-113.12,177.78"/>
    <g>
      <path class="cls-3" d="m268.32,305.42c0-8.46-.09-17.12.02-25.76.29-23.55,14.15-43.86,35.48-52.14,37-14.34,76.13,12.09,76.75,51.88.13,8.67.02,17.35.02,26.28,2.1.36,3.82.57,5.5.97,9.91,2.37,16.94,11.41,17,22.39.11,24.5.15,48.99,0,73.48-.08,13.81-9.75,23.29-23.66,23.34-36.75.09-73.48.1-110.22,0-13.57-.04-23.26-9.58-23.36-23.09-.18-24.67-.17-49.34,0-74.01.08-12.5,6.85-19.43,22.49-23.35h0,0Zm55.87,110c17.07,0,34.14.02,51.21,0,10.51-.02,16.24-5.65,16.26-16.03.04-22.26.04-44.52,0-66.77-.02-10.46-5.65-16.33-16.03-16.36-34.14-.08-68.28-.09-102.42,0-10.36.02-16.01,5.95-16.03,16.38-.03,22.09-.03,44.18,0,66.28.02,11.04,5.6,16.5,16.79,16.52,16.74.02,33.48,0,50.21,0h0v-.02Zm-34.31-109.6h67.85c0-10.74.95-21.25-.22-31.52-1.81-15.8-15.48-27.51-31.22-28.41-15.6-.89-31.12,9.39-34.15,24.78-2.22,11.3-1.61,23.16-2.27,35.15h.02Zm83.4.06c0-9.83.36-19.06-.07-28.26-1.13-24.18-19.15-43.31-43.39-46.49-22.55-2.96-46.08,11.66-51.7,34.41-3.17,12.8-2.5,26.56-3.59,40.27h8.83c0-2.4-.02-4.5,0-6.59.12-8.35-.29-16.74.51-25,1.89-19.81,19.62-35.4,39.94-35.73,20.4-.33,38.89,15.1,41.08,35.05.96,8.78.47,17.73.65,26.6.04,1.88.2,3.75.31,5.75h7.44,0Z"/>
      <g>
        <path class="cls-3" d="m277.53,366.61l-8.38-1.51c.94-3.38,2.57-5.87,4.87-7.5s5.72-2.43,10.25-2.43c4.12,0,7.19.49,9.21,1.46,2.02.97,3.44,2.22,4.26,3.71s1.23,4.26,1.23,8.27l-.1,10.78c0,3.07.15,5.33.45,6.79s.85,3.02,1.66,4.68h-9.14c-.25-.61-.54-1.52-.89-2.72-.16-.55-.26-.91-.32-1.08-1.58,1.53-3.26,2.68-5.06,3.45-1.8.77-3.71,1.15-5.76,1.15-3.59,0-6.43-.97-8.5-2.92-2.07-1.96-3.11-4.41-3.11-7.4,0-1.97.48-3.73,1.42-5.27s2.26-2.72,3.97-3.55,4.15-1.54,7.35-2.15c4.32-.82,7.31-1.56,8.97-2.27v-.92c0-1.77-.44-3.05-1.32-3.79-.88-.75-2.53-1.13-4.96-1.13-1.65,0-2.92.32-3.84.97-.92.64-1.67,1.78-2.24,3.4h0Zm12.36,7.49c-1.18.39-3.06.86-5.62,1.42s-4.24,1.08-5.03,1.62c-1.2.86-1.81,1.94-1.81,3.25s.48,2.41,1.45,3.36,2.19,1.42,3.68,1.42c1.67,0,3.25-.55,4.77-1.65,1.12-.83,1.84-1.84,2.21-3.06.25-.79.36-2.29.36-4.51v-1.84h0Z"/>
        <path class="cls-3" d="m307.68,390.87v-48.19h9.24v17.36c2.85-3.24,6.22-4.87,10.13-4.87,4.25,0,7.77,1.54,10.55,4.62,2.79,3.08,4.17,7.5,4.17,13.27s-1.42,10.55-4.26,13.78c-2.84,3.22-6.29,4.84-10.34,4.84-2,0-3.97-.5-5.9-1.5-1.94-1-3.61-2.48-5.01-4.42v5.13h-8.58v-.02Zm9.18-18.21c0,3.61.57,6.29,1.71,8.02,1.61,2.45,3.73,3.68,6.37,3.68,2.03,0,3.78-.87,5.21-2.61s2.15-4.48,2.15-8.23c0-3.99-.73-6.86-2.18-8.63-1.45-1.77-3.29-2.64-5.55-2.64s-4.05.86-5.52,2.58-2.21,4.33-2.21,7.84h0Z"/>
        <path class="cls-3" d="m379.64,366.28l-9.11,1.65c-.31-1.81-1-3.19-2.08-4.11s-2.49-1.39-4.23-1.39c-2.3,0-4.13.8-5.5,2.38s-2.05,4.25-2.05,7.97c0,4.14.69,7.06,2.08,8.77,1.39,1.71,3.25,2.57,5.61,2.57,1.75,0,3.19-.5,4.31-1.5s1.91-2.71,2.37-5.15l9.07,1.54c-.94,4.16-2.75,7.31-5.42,9.44-2.67,2.12-6.26,3.19-10.75,3.19-5.11,0-9.18-1.62-12.21-4.84-3.03-3.22-4.55-7.69-4.55-13.38s1.52-10.25,4.57-13.46c3.05-3.21,7.17-4.82,12.36-4.82,4.25,0,7.63.91,10.14,2.74s4.32,4.62,5.41,8.37v.02h0Z"/>
      </g>
    </g>
  </g>
</svg>